<svg width="144" height="144" viewBox="0 0 144 144" fill="none" xmlns="http://www.w3.org/2000/svg"><path d="M126.176 94.141c-.5 9.45-.738 14.164-1.762 16.711-1.118 2.761-2.666 4.618-6.022 7.046-1.619 1.19-3.69 2.499-6.332 4.118-.881.547-1.833 1.118-2.856 1.737-1.333.81-2.785 1.69-4.38 2.666-.762.476-1.452.881-2.143 1.31-2.856 1.761-5.427 3.332-11.544 7.093a171.483 171.483 0 01-6.332 3.737c-1.167.667-2.214 1.238-2.476 1.357-7.332 3.88-24.351-.166-26.422-.666a136.802 136.802 0 01-5.594-1.452c-1.095-.31-2.166-.619-3.214-.905-.666-.19-1.118-.333-2.428-.738-.976-.285-2.428-.738-4.784-1.452-1.738-.524-3.976-1.214-6.88-2.095-10.497-3.166-10.569-3.166-11.02-3.499-5.642-4.046-1.12-23.923-.953-43.561a109.21 109.21 0 00-.476-11.593c-.167-1.737-.31-3.237-.452-4.594-.453-4.76-.477-7.617 1.904-11.545 1.142-1.88 5.403-5.522 13.735-12.449.88-.714 1.785-1.476 2.737-2.285 1.428-1.19 2.81-2.333 4.214-3.404 2.832-2.214 5.712-4.285 9.235-6.427 4.309-2.619 6.475-3.928 8.237-4.428 6.974-2 11.116 1.524 25.256 5.547.214.071.428.119.666.19 2.476.69 4.785 1.333 7.189 1.952a117.66 117.66 0 009.402 2.023s15.925 2.81 20.567 7.832c.524.571.928 1.214.928 1.214.334.523.619 1.19.857 1.975.381 1.215.643 2.762.857 4.642.072.62.119 1.262.191 1.928.428 5.5.476 13.473.5 24.614-.024.619 0 6.094-.405 13.401z" fill="#FF8FF0"/><path d="M126.056 56.173c-11.283 9.117-31.35 20.829-41.418 23.162-14.545 3.38-43.633-7.023-53.774-8.856-4.403-.809-7.855-.856-10.735-1.07-.452-4.762-.476-7.618 1.904-11.546 1.143-1.88 5.404-5.522 13.735-12.45a153.52 153.52 0 002.737-2.284c1.429-1.19 2.81-2.333 4.214-3.404 2.832-2.214 5.713-4.285 9.236-6.427 4.308-2.619 6.474-3.928 8.236-4.428 6.974-2 11.116 1.524 25.256 5.546.214.072.428.12.666.19a368.46 368.46 0 007.19 1.953c2.856.738 5.855 1.404 9.402 2.023 0 0 15.924 2.809 20.566 7.832a9.67 9.67 0 01.929 1.214c.333.523.618 1.19.857 1.975.38 1.214.642 2.762.856 4.642.024.595.072 1.238.143 1.928z" fill="#00FF9D"/><path d="M113.179 77.098c-.595-7.974-1.19-26.851-6.499-28.017-1.737-.381-10.021-1.643-20.447-3.166 7.07-6.047 17.853-15.282 21.471-18.686 5.546-5.213 9.069-19.924-3.594-24.78-12.64-4.856-23.352 15.163-26.542 26.589a88.592 88.592 0 00-2.356 10.902c-.572.31-1.12.619-1.69.928-3.5-8.879-11.974-28.54-19.591-32.778-9.879-5.522-21.804 5.809-17.139 15.116C39.91 29.442 54.312 37.82 63.43 42.63c-7.856-1.119-15.282-2.166-20.71-2.928a165.66 165.66 0 00-4.213 3.404c-.952.81-1.857 1.547-2.737 2.285 5.284 1.047 13.83 2.738 22.161 4.404-6.76 4.094-12.092 7.712-13.259 9.593-3.594 5.903-1.404 40.99-2.285 50.131-.524 5.356-1.642 16.71-2.5 25.184 2.357.714 3.81 1.167 4.785 1.452 1.31.405 1.762.548 2.428.738 1.048.286 2.119.595 3.214.905 1.119-13.092 2.88-35.492 2.69-42.442-.286-10.022.285-27.423 2.642-33.04.762-1.81 6.094-5.832 12.95-10.403 5.403 1.072 9.878 1.976 12.115 2.452 8.546 1.762 20.638.88 21.829 9.45.928 6.69.404 46.775.119 63.914.69-.429 1.38-.833 2.142-1.309 1.595-.976 3.047-1.857 4.38-2.666 1.023-.619 1.976-1.214 2.856-1.738.595-13.687 1.571-39.158 1.143-44.918zm-20.471-66.89c4.832-4.212 14.353-4.093 15.305.572.667 3.333-12.64 16.83-20.328 24.256-.524-.142-1.071-.31-1.619-.452-.214-.071-.452-.119-.666-.19-1.333.714-2.785 1.476-4.309 2.309 1.81-5.57 7.57-22.947 11.617-26.494zM46.67 21.207c-2.595-3.308-3.452-9.521 2.737-8.498 6.19 1 18.448 25.375 18.448 25.375l-.571 1.428S49.264 24.516 46.67 21.207z" fill="#BB54F7"/></svg>
